<svg width="512" height="512" viewBox="0 0 512 512" fill="none" xmlns="http://www.w3.org/2000/svg">
<path d="M134.688 37.8125C133.045 37.7713 131.365 37.9904 129.703 38.5H129.688L128.656 38.8125C128.651 38.8125 128.646 38.8125 128.641 38.8125C75.9874 55.0116 40 103.741 40 158.828V164.516C40 208.144 67.6416 258.511 104 283.562V384C104 445.763 154.237 496 216 496H296C357.763 496 408 445.763 408 384V283.562C444.358 258.511 472 208.152 472 164.531V158.844C472 103.749 436.013 55.0116 383.359 38.8125C383.354 38.8125 383.349 38.8125 383.344 38.8125L382.312 38.5H382.297C375.652 36.4595 368.74 39.168 365.016 43.9219C361.288 48.6795 360.299 56.048 363.875 62.0156C363.88 62.0156 363.885 62.0156 363.891 62.0156L373.219 77.5781L364.75 83.2187C355.95 89.0852 355.351 102.324 363.578 108.969C365.706 110.688 367.801 112.532 368.062 112.797C382.519 127.518 387.506 147.691 384.703 168.734C382.068 188.521 371.837 208.351 356.906 223.703C349.174 221.248 306.308 208 256.016 208C204.581 208 162.727 220.6 155.094 222.969C140.148 207.619 129.925 187.909 127.297 168.297C124.502 147.444 129.461 127.491 143.922 112.797C144.176 112.538 146.29 110.691 148.422 108.969C156.649 102.324 156.05 89.0695 147.25 83.2031L138.781 77.5781L148.109 62.0156C151.692 56.0501 150.729 48.6816 147 43.9219C144.206 40.3549 139.614 37.9361 134.688 37.8125ZM134.375 53.7969L121.141 75.8906C120.085 77.6529 119.748 79.7536 120.199 81.7578C120.65 83.7619 121.854 85.5158 123.562 86.6562L138.359 96.5156C136.075 98.3613 134.149 99.9167 132.516 101.578C114.209 120.18 108.12 145.665 111.438 170.422C114.755 195.179 127.214 219.582 146.516 237.812C147.56 238.8 148.851 239.488 150.253 239.805C151.656 240.121 153.117 240.053 154.484 239.609C154.484 239.609 202.822 224 256.016 224C307.659 224 357.469 240.359 357.469 240.359C358.839 240.811 360.306 240.884 361.714 240.571C363.122 240.257 364.42 239.569 365.469 238.578C384.793 220.331 397.243 195.764 400.562 170.844C403.882 145.923 397.812 120.257 379.484 101.594C379.484 101.589 379.484 101.583 379.484 101.578C377.851 99.9167 375.925 98.3769 373.641 96.5312L388.438 86.6562C390.146 85.5158 391.35 83.7619 391.801 81.7578C392.252 79.7536 391.915 77.6529 390.859 75.8906L377.625 53.7969L378.656 54.1094H378.672C424.666 68.2668 456 110.711 456 158.844V164.531C456 202.343 427.828 253.18 395.766 273.219C394.614 273.937 393.665 274.936 393.006 276.123C392.347 277.309 392.001 278.643 392 280V384C392 437.117 349.117 480 296 480H216C162.883 480 120 437.117 120 384V280C119.999 278.643 119.653 277.309 118.994 276.123C118.335 274.936 117.386 273.937 116.234 273.219C84.1721 253.18 56 202.336 56 164.516V158.828C56 110.704 87.3332 68.2665 133.328 54.1094L134.375 53.7969ZM255.578 151.922C253.459 151.971 251.446 152.86 249.981 154.392C248.517 155.924 247.72 157.975 247.766 160.094L247.906 176.094C247.902 177.152 248.108 178.201 248.512 179.18C248.916 180.158 249.51 181.047 250.26 181.794C251.01 182.541 251.901 183.132 252.881 183.532C253.861 183.932 254.911 184.134 255.969 184.126C257.028 184.118 258.074 183.9 259.048 183.484C260.022 183.068 260.903 182.464 261.641 181.705C262.38 180.946 262.96 180.048 263.349 179.064C263.737 178.079 263.927 177.027 263.906 175.969L263.766 159.969C263.772 158.898 263.564 157.837 263.153 156.849C262.742 155.861 262.137 154.965 261.373 154.214C260.61 153.464 259.703 152.874 258.708 152.481C257.713 152.087 256.648 151.897 255.578 151.922ZM296.594 153.094C294.617 153.192 292.746 154.019 291.344 155.416C289.941 156.812 289.106 158.68 289 160.656L287.938 176.625C287.822 177.697 287.925 178.781 288.239 179.812C288.553 180.843 289.073 181.8 289.766 182.626C290.459 183.451 291.312 184.128 292.274 184.615C293.235 185.103 294.285 185.391 295.361 185.463C296.436 185.534 297.515 185.388 298.533 185.032C299.551 184.676 300.486 184.119 301.282 183.393C302.079 182.666 302.721 181.787 303.169 180.806C303.617 179.826 303.863 178.765 303.891 177.687L304.953 161.719C305.043 160.586 304.891 159.447 304.506 158.378C304.122 157.308 303.514 156.333 302.723 155.517C301.932 154.701 300.976 154.063 299.919 153.645C298.863 153.227 297.729 153.039 296.594 153.094V153.094ZM214.547 153.828C213.43 153.829 212.325 154.064 211.304 154.518C210.284 154.972 209.369 155.635 208.62 156.463C207.871 157.292 207.303 158.268 206.954 159.33C206.605 160.391 206.483 161.513 206.594 162.625L207.969 178.562C208.059 179.61 208.354 180.63 208.839 181.563C209.323 182.497 209.986 183.325 210.791 184.002C211.595 184.679 212.525 185.191 213.528 185.509C214.53 185.826 215.585 185.943 216.633 185.853C217.681 185.763 218.7 185.467 219.633 184.983C220.567 184.498 221.395 183.835 222.072 183.03C222.749 182.225 223.261 181.295 223.578 180.293C223.896 179.29 224.012 178.235 223.922 177.187L222.531 161.25C222.385 159.233 221.48 157.346 219.999 155.969C218.517 154.592 216.569 153.827 214.547 153.828ZM337.609 157.594C335.766 157.702 334.018 158.444 332.659 159.694C331.301 160.944 330.416 162.625 330.156 164.453L327.688 180.266C327.482 181.321 327.491 182.407 327.715 183.458C327.938 184.51 328.372 185.506 328.989 186.386C329.606 187.267 330.394 188.014 331.306 188.583C332.218 189.152 333.236 189.532 334.298 189.699C335.36 189.866 336.445 189.817 337.488 189.555C338.53 189.294 339.51 188.825 340.367 188.176C341.225 187.527 341.943 186.713 342.478 185.78C343.014 184.848 343.356 183.817 343.484 182.75L345.969 166.937C346.173 165.749 346.107 164.53 345.774 163.372C345.441 162.213 344.851 161.144 344.047 160.246C343.243 159.347 342.246 158.642 341.132 158.183C340.017 157.724 338.813 157.522 337.609 157.594V157.594ZM173.562 159.234C172.379 159.231 171.209 159.49 170.137 159.993C169.065 160.496 168.119 161.231 167.366 162.144C166.612 163.057 166.071 164.126 165.781 165.274C165.491 166.422 165.459 167.62 165.688 168.781L168.547 184.531C168.735 185.566 169.126 186.553 169.696 187.436C170.266 188.32 171.005 189.082 171.869 189.68C172.734 190.278 173.708 190.7 174.736 190.921C175.764 191.143 176.825 191.16 177.86 190.971C178.894 190.782 179.881 190.391 180.764 189.821C181.648 189.251 182.41 188.512 183.008 187.647C183.606 186.782 184.027 185.808 184.248 184.78C184.469 183.752 184.486 182.691 184.297 181.656L181.422 165.906C181.109 164.046 180.148 162.356 178.71 161.136C177.272 159.915 175.449 159.242 173.562 159.234V159.234ZM184 328C173.391 328 163.217 333.057 155.716 342.059C148.214 351.061 144 363.27 144 376C144 388.73 148.214 400.939 155.716 409.941C163.217 418.943 173.391 424 184 424C194.609 424 204.783 418.943 212.284 409.941C219.786 400.939 224 388.73 224 376C224 363.27 219.786 351.061 212.284 342.059C204.783 333.057 194.609 328 184 328V328ZM328 328C317.391 328 307.217 333.057 299.716 342.059C292.214 351.061 288 363.27 288 376C288 388.73 292.214 400.939 299.716 409.941C307.217 418.943 317.391 424 328 424C338.609 424 348.783 418.943 356.284 409.941C363.786 400.939 368 388.73 368 376C368 363.27 363.786 351.061 356.284 342.059C348.783 333.057 338.609 328 328 328V328Z" fill="#8257E5"/>
</svg>
