<svg width="237" height="48" viewBox="0 0 237 48" fill="none" xmlns="http://www.w3.org/2000/svg">
<path d="M53.1188 24.8666C53.1188 25.6132 53.1508 26.1786 53.2148 26.5626C53.2788 26.9466 53.4068 27.2772 53.5988 27.5546C53.7908 27.8319 54.0894 28.1519 54.4948 28.5146L54.2388 28.8986H48.6068L48.4148 28.3226C48.9054 28.1946 49.2574 28.0666 49.4708 27.9386C49.7054 27.7892 49.8548 27.5972 49.9188 27.3626C50.0041 27.1066 50.0468 26.7332 50.0468 26.2426V21.7626H44.3828V24.8666C44.3828 25.6132 44.4148 26.1892 44.4788 26.5946C44.5428 26.9786 44.6601 27.3092 44.8308 27.5866C45.0228 27.8426 45.3214 28.1519 45.7268 28.5146L45.5028 28.8986H39.8708L39.6788 28.3226C40.3828 28.1306 40.8308 27.9172 41.0228 27.6826C41.2148 27.4266 41.3108 26.9466 41.3108 26.2426V17.9226C41.3108 16.8986 41.2254 16.1839 41.0548 15.7786C40.9054 15.3519 40.5214 14.8826 39.9028 14.3706L40.1588 13.9546H45.5988L45.8228 14.4666C45.2041 14.8292 44.8094 15.1706 44.6388 15.4906C44.4681 15.7892 44.3828 16.3332 44.3828 17.1226V20.8666H50.0468V17.9226C50.0468 16.8986 49.9614 16.1839 49.7908 15.7786C49.6414 15.3519 49.2574 14.8826 48.6388 14.3706L48.8948 13.9546H54.3348L54.5908 14.4666C53.9721 14.8292 53.5668 15.1706 53.3748 15.4906C53.2041 15.7892 53.1188 16.3332 53.1188 17.1226V24.8666ZM64.2315 29.1866C62.0128 29.1866 60.2528 28.4932 58.9515 27.1066C57.6502 25.7199 56.9995 23.8319 56.9995 21.4426C56.9995 19.0532 57.6502 17.1652 58.9515 15.7786C60.2528 14.3706 62.0128 13.6666 64.2315 13.6666C66.4502 13.6666 68.2102 14.3706 69.5115 15.7786C70.8342 17.1652 71.4955 19.0532 71.4955 21.4426C71.4955 23.8106 70.8342 25.6986 69.5115 27.1066C68.2102 28.4932 66.4502 29.1866 64.2315 29.1866ZM64.1355 28.4506C64.9248 28.4506 65.6182 28.1626 66.2155 27.5866C66.8342 26.9892 67.3142 26.1679 67.6555 25.1226C67.9968 24.0772 68.1675 22.8719 68.1675 21.5066C68.1675 20.1412 67.9968 18.9146 67.6555 17.8266C67.3355 16.7386 66.8768 15.8959 66.2795 15.2986C65.7035 14.6799 65.0422 14.3706 64.2955 14.3706C63.5062 14.3706 62.8022 14.6799 62.1835 15.2986C61.5648 15.8959 61.0848 16.7492 60.7435 17.8586C60.4022 18.9466 60.2315 20.1946 60.2315 21.6026C60.2315 23.6719 60.5835 25.3359 61.2875 26.5946C61.9915 27.8319 62.9408 28.4506 64.1355 28.4506ZM75.276 18.0826C75.276 17.3146 75.244 16.7386 75.18 16.3546C75.116 15.9492 74.988 15.6079 74.796 15.3306C74.604 15.0532 74.2947 14.7332 73.868 14.3706L74.156 13.9546H79.724L79.948 14.4666C79.4573 14.7439 79.1053 14.9892 78.892 15.2026C78.6787 15.4159 78.5293 15.6826 78.444 16.0026C78.38 16.3226 78.348 16.8239 78.348 17.5066V26.4346C78.348 27.1172 78.444 27.5652 78.636 27.7786C78.828 27.9919 79.2547 28.0986 79.916 28.0986H81.132C81.7507 28.0986 82.2413 27.8959 82.604 27.4906C82.9667 27.0639 83.34 26.2639 83.724 25.0906L84.364 25.3146V29.1546L84.044 29.4426C83.7667 29.2292 83.4573 29.0799 83.116 28.9946C82.7747 28.9306 82.2627 28.8986 81.58 28.8986H73.708L73.516 28.3226C74.0493 28.1732 74.4333 28.0346 74.668 27.9066C74.9027 27.7572 75.0627 27.5652 75.148 27.3306C75.2333 27.0959 75.276 26.7332 75.276 26.2426V18.0826ZM87.9472 18.0826C87.9472 17.3146 87.9152 16.7386 87.8512 16.3546C87.7872 15.9492 87.6592 15.6079 87.4672 15.3306C87.2752 15.0532 86.9659 14.7332 86.5392 14.3706L86.8272 13.9546H92.3952L92.6192 14.4666C92.1286 14.7439 91.7766 14.9892 91.5632 15.2026C91.3499 15.4159 91.2006 15.6826 91.1152 16.0026C91.0512 16.3226 91.0192 16.8239 91.0192 17.5066V26.4346C91.0192 27.1172 91.1152 27.5652 91.3072 27.7786C91.4992 27.9919 91.9259 28.0986 92.5872 28.0986H93.8032C94.4219 28.0986 94.9126 27.8959 95.2752 27.4906C95.6379 27.0639 96.0112 26.2639 96.3952 25.0906L97.0352 25.3146V29.1546L96.7152 29.4426C96.4379 29.2292 96.1286 29.0799 95.7872 28.9946C95.4459 28.9306 94.9339 28.8986 94.2512 28.8986H86.3792L86.1872 28.3226C86.7206 28.1732 87.1046 28.0346 87.3392 27.9066C87.5739 27.7572 87.7339 27.5652 87.8192 27.3306C87.9046 27.0959 87.9472 26.7332 87.9472 26.2426V18.0826ZM106.027 29.1866C103.808 29.1866 102.048 28.4932 100.747 27.1066C99.4452 25.7199 98.7945 23.8319 98.7945 21.4426C98.7945 19.0532 99.4452 17.1652 100.747 15.7786C102.048 14.3706 103.808 13.6666 106.027 13.6666C108.245 13.6666 110.005 14.3706 111.307 15.7786C112.629 17.1652 113.291 19.0532 113.291 21.4426C113.291 23.8106 112.629 25.6986 111.307 27.1066C110.005 28.4932 108.245 29.1866 106.027 29.1866ZM105.931 28.4506C106.72 28.4506 107.413 28.1626 108.011 27.5866C108.629 26.9892 109.109 26.1679 109.451 25.1226C109.792 24.0772 109.963 22.8719 109.963 21.5066C109.963 20.1412 109.792 18.9146 109.451 17.8266C109.131 16.7386 108.672 15.8959 108.075 15.2986C107.499 14.6799 106.837 14.3706 106.091 14.3706C105.301 14.3706 104.597 14.6799 103.979 15.2986C103.36 15.8959 102.88 16.7492 102.539 17.8586C102.197 18.9466 102.027 20.1946 102.027 21.6026C102.027 23.6719 102.379 25.3359 103.083 26.5946C103.787 27.8319 104.736 28.4506 105.931 28.4506ZM137.167 14.3066C136.634 14.7119 136.239 15.0959 135.983 15.4586C135.727 15.7999 135.492 16.2586 135.279 16.8346L131.247 28.8986H128.495L125.775 19.9066L123.087 28.8986H120.303L116.207 16.8346C115.994 16.2372 115.759 15.7786 115.503 15.4586C115.268 15.1172 114.884 14.7332 114.351 14.3066L114.607 13.9546H120.431L120.623 14.5306L120.175 14.6586C119.855 14.7652 119.62 14.9039 119.471 15.0746C119.343 15.2239 119.279 15.4372 119.279 15.7146C119.279 15.9279 119.354 16.2692 119.503 16.7386L122.703 26.2746L125.167 17.9546L124.815 16.8346C124.602 16.2372 124.367 15.7786 124.111 15.4586C123.876 15.1172 123.492 14.7332 122.959 14.3066L123.215 13.9546H129.039L129.263 14.5306L128.783 14.6586C128.442 14.7439 128.207 14.8719 128.079 15.0426C127.951 15.1919 127.887 15.4159 127.887 15.7146C127.887 15.9279 127.962 16.2692 128.111 16.7386L130.927 26.3066L134.095 16.8026C134.244 16.3332 134.319 15.9812 134.319 15.7466C134.319 15.4906 134.244 15.2879 134.095 15.1386C133.967 14.9679 133.743 14.8399 133.423 14.7546L132.847 14.5306L133.039 13.9546H136.911L137.167 14.3066ZM147.732 16.4186C147.732 17.2719 148.03 17.9759 148.628 18.5306C149.225 19.0639 150.121 19.6719 151.316 20.3546C152.19 20.8452 152.884 21.2719 153.396 21.6346C153.908 21.9972 154.345 22.4559 154.708 23.0106C155.07 23.5652 155.252 24.2052 155.252 24.9306C155.252 26.2532 154.718 27.2986 153.652 28.0666C152.606 28.8132 151.198 29.1866 149.428 29.1866C147.913 29.1866 146.686 28.8986 145.748 28.3226C144.83 27.7466 144.372 26.9679 144.372 25.9866C144.372 25.3466 144.585 24.8452 145.012 24.4826C145.46 24.0986 146.014 23.9066 146.676 23.9066C147.188 23.9066 147.678 24.0346 148.148 24.2906C147.486 24.6319 147.156 25.3039 147.156 26.3066C147.156 26.9039 147.369 27.4159 147.796 27.8426C148.244 28.2479 148.841 28.4506 149.588 28.4506C150.356 28.4506 150.953 28.2372 151.38 27.8106C151.828 27.3839 152.052 26.8506 152.052 26.2106C152.052 25.4639 151.774 24.8559 151.22 24.3866C150.686 23.8959 149.865 23.3306 148.756 22.6906C147.881 22.2212 147.156 21.7839 146.58 21.3786C146.025 20.9732 145.556 20.4719 145.172 19.8746C144.788 19.2772 144.596 18.5732 144.596 17.7626C144.596 16.5466 145.108 15.5652 146.132 14.8186C147.177 14.0506 148.532 13.6666 150.196 13.6666C151.625 13.6666 152.788 13.9439 153.684 14.4986C154.58 15.0319 155.028 15.7466 155.028 16.6426C155.028 17.2186 154.836 17.6772 154.452 18.0186C154.068 18.3386 153.545 18.4986 152.884 18.4986C152.414 18.4986 151.924 18.3812 151.412 18.1466C151.689 17.9332 151.902 17.6666 152.052 17.3466C152.201 17.0266 152.276 16.6959 152.276 16.3546C152.276 15.8212 152.084 15.3732 151.7 15.0106C151.316 14.6266 150.75 14.4346 150.004 14.4346C149.278 14.4346 148.713 14.6266 148.308 15.0106C147.924 15.3946 147.732 15.8639 147.732 16.4186ZM164.618 29.1866C162.399 29.1866 160.639 28.4932 159.338 27.1066C158.036 25.7199 157.386 23.8319 157.386 21.4426C157.386 19.0532 158.036 17.1652 159.338 15.7786C160.639 14.3706 162.399 13.6666 164.618 13.6666C166.836 13.6666 168.596 14.3706 169.898 15.7786C171.22 17.1652 171.882 19.0532 171.882 21.4426C171.882 23.8106 171.22 25.6986 169.898 27.1066C168.596 28.4932 166.836 29.1866 164.618 29.1866ZM164.522 28.4506C165.311 28.4506 166.004 28.1626 166.602 27.5866C167.22 26.9892 167.7 26.1679 168.042 25.1226C168.383 24.0772 168.554 22.8719 168.554 21.5066C168.554 20.1412 168.383 18.9146 168.042 17.8266C167.722 16.7386 167.263 15.8959 166.666 15.2986C166.09 14.6799 165.428 14.3706 164.682 14.3706C163.892 14.3706 163.188 14.6799 162.57 15.2986C161.951 15.8959 161.471 16.7492 161.13 17.8586C160.788 18.9466 160.618 20.1946 160.618 21.6026C160.618 23.6719 160.97 25.3359 161.674 26.5946C162.378 27.8319 163.327 28.4506 164.522 28.4506ZM180.878 29.1866C178.596 29.1866 176.846 28.4612 175.63 27.0106C174.436 25.5599 173.838 23.7039 173.838 21.4426C173.838 19.1812 174.446 17.3252 175.662 15.8746C176.878 14.4026 178.638 13.6666 180.942 13.6666C182.414 13.6666 183.609 13.9546 184.526 14.5306C185.465 15.0852 185.934 15.8212 185.934 16.7386C185.934 17.6346 185.561 18.3386 184.814 18.8506C184.068 19.3626 183.129 19.6186 181.998 19.6186C182.638 18.9359 182.958 18.0079 182.958 16.8346C182.958 16.1519 182.745 15.5866 182.318 15.1386C181.913 14.6692 181.38 14.4346 180.718 14.4346C179.502 14.4346 178.606 15.1279 178.03 16.5146C177.476 17.9012 177.198 19.5439 177.198 21.4426C177.198 22.6586 177.369 23.7679 177.71 24.7706C178.073 25.7732 178.585 26.5732 179.246 27.1706C179.929 27.7466 180.708 28.0346 181.582 28.0346C182.585 28.0346 183.417 27.8319 184.078 27.4266C184.761 26.9999 185.38 26.4132 185.934 25.6666L186.318 25.9546C185.742 26.9146 184.996 27.6932 184.078 28.2906C183.182 28.8879 182.116 29.1866 180.878 29.1866ZM187.951 28.3226C188.442 28.1946 188.794 28.0666 189.007 27.9386C189.242 27.7892 189.391 27.5972 189.455 27.3626C189.541 27.1066 189.583 26.7332 189.583 26.2426V17.9226C189.583 16.8986 189.498 16.1839 189.327 15.7786C189.178 15.3519 188.794 14.8826 188.175 14.3706L188.463 13.9546H193.871L194.095 14.4666C193.477 14.8292 193.082 15.1706 192.911 15.4906C192.741 15.7892 192.655 16.3332 192.655 17.1226V24.9946C192.655 25.9972 192.73 26.7119 192.879 27.1386C193.05 27.5439 193.434 28.0026 194.031 28.5146L193.775 28.8986H188.175L187.951 28.3226ZM198.35 18.1466C198.35 17.2932 198.286 16.6212 198.158 16.1306C198.03 15.6399 197.785 15.1492 197.422 14.6586L197.166 14.3066L197.422 13.9546H204.494C205.667 13.9546 206.457 13.8159 206.862 13.5386L207.246 13.2506L207.566 13.5386V17.5386L206.926 17.7626C206.542 16.6106 206.158 15.8212 205.774 15.3946C205.411 14.9679 204.889 14.7546 204.206 14.7546H202.766C202.211 14.7546 201.849 14.8612 201.678 15.0746C201.507 15.2666 201.422 15.6932 201.422 16.3546V20.8986H203.726C204.366 20.8986 204.835 20.8346 205.134 20.7066C205.454 20.5786 205.689 20.3226 205.838 19.9386L205.998 19.4906L206.414 19.7466V23.3306L205.71 23.5866L205.582 22.8826C205.497 22.4346 205.262 22.1252 204.878 21.9546C204.494 21.7839 203.875 21.6986 203.022 21.6986H201.422V26.5306C201.422 27.1706 201.518 27.5972 201.71 27.8106C201.902 28.0026 202.329 28.0986 202.99 28.0986H204.558C205.198 28.0986 205.699 27.8746 206.062 27.4266C206.446 26.9786 206.809 26.1999 207.15 25.0906L207.822 25.3146V29.1546L207.47 29.4426C207.171 29.2292 206.83 29.0799 206.446 28.9946C206.062 28.9306 205.529 28.8986 204.846 28.8986H196.814L196.59 28.3226C197.123 28.1732 197.507 28.0346 197.742 27.9066C197.977 27.7572 198.137 27.5652 198.222 27.3306C198.307 27.0959 198.35 26.7332 198.35 26.2426V18.1466ZM217.585 26.2426C217.585 26.7332 217.627 27.1066 217.713 27.3626C217.819 27.5972 217.99 27.7786 218.225 27.9066C218.459 28.0346 218.843 28.1732 219.377 28.3226L219.153 28.8986H213.585L213.329 28.5786L213.585 28.1946C213.947 27.7039 214.193 27.2132 214.321 26.7226C214.47 26.2106 214.534 25.5386 214.513 24.7066V16.0986C214.513 15.5652 214.459 15.2132 214.353 15.0426C214.267 14.8506 214.086 14.7546 213.809 14.7546H213.457C212.731 14.7546 212.187 14.9786 211.825 15.4266C211.462 15.8532 211.089 16.6319 210.705 17.7626L210.065 17.5386V13.5386L210.385 13.2506L210.769 13.5386C211.174 13.8159 211.963 13.9546 213.137 13.9546H218.993C220.166 13.9546 220.955 13.8159 221.361 13.5386L221.745 13.2506L222.097 13.5386V17.5386L221.425 17.7626C221.019 16.5892 220.635 15.7999 220.273 15.3946C219.931 14.9679 219.409 14.7546 218.705 14.7546H218.289C218.011 14.7546 217.819 14.8506 217.713 15.0426C217.627 15.2132 217.585 15.5652 217.585 16.0986V26.2426ZM235.804 14.3066L235.484 14.6586C234.908 15.3626 234.417 16.0986 234.012 16.8666L231.1 22.4346V26.2426C231.1 26.7332 231.142 27.1066 231.228 27.3626C231.334 27.5972 231.505 27.7786 231.74 27.9066C231.974 28.0346 232.348 28.1732 232.86 28.3226L232.668 28.8986H227.068L226.812 28.5786L227.068 28.1946C227.43 27.7252 227.676 27.2452 227.804 26.7546C227.953 26.2426 228.028 25.5599 228.028 24.7066V22.4986L224.988 16.9306C224.646 16.2479 224.326 15.7252 224.028 15.3626C223.729 14.9786 223.356 14.6266 222.908 14.3066L223.196 13.9546H229.052L229.212 14.5306L228.732 14.6586C228.113 14.7866 227.804 15.0319 227.804 15.3946C227.804 15.5226 227.857 15.7039 227.964 15.9386C228.07 16.1732 228.23 16.4932 228.444 16.8986L230.62 20.9946L232.924 16.6106C233.094 16.3332 233.18 16.0559 233.18 15.7786C233.18 15.5012 233.094 15.2666 232.924 15.0746C232.753 14.8612 232.54 14.7226 232.284 14.6586L231.676 14.5306L231.868 13.9546H235.548L235.804 14.3066Z" fill="white"/>
<path d="M7.76733 0.000399859C7.63264 -0.00297937 7.49475 0.0149949 7.35846 0.0567963H7.35718L7.27258 0.0824311C7.27216 0.0824307 7.27173 0.0824307 7.2713 0.0824311C2.95209 1.41127 0 5.40861 0 9.92746V10.394C0 13.9729 2.26747 18.1046 5.25 20.1596V28.3986C5.25 33.4651 9.37099 37.5861 14.4375 37.5861H21C26.0665 37.5861 30.1875 33.4651 30.1875 28.3986V20.1596C33.17 18.1046 35.4375 13.9736 35.4375 10.3953V9.92874C35.4375 5.40928 32.4854 1.41127 28.1662 0.0824311C28.1658 0.0824307 28.1653 0.0824307 28.1649 0.0824311L28.0803 0.0567963H28.079C27.5339 -0.110584 26.9669 0.111598 26.6614 0.50156C26.3557 0.891834 26.2745 1.49628 26.5679 1.98581C26.5683 1.98581 26.5687 1.98581 26.5692 1.98581L27.3344 3.26242L26.6396 3.72513C25.9178 4.20636 25.8686 5.2924 26.5435 5.83744C26.718 5.97844 26.8899 6.12977 26.9114 6.15146C28.0973 7.35906 28.5063 9.01386 28.2764 10.7401C28.0602 12.3632 27.221 13.9899 25.9962 15.2492C25.3619 15.0478 21.8456 13.9611 17.72 13.9611C13.5008 13.9611 10.0675 14.9947 9.44128 15.189C8.21523 13.9298 7.37666 12.313 7.16107 10.7042C6.93184 8.99359 7.33856 7.35685 8.52484 6.15146C8.5457 6.13025 8.71912 5.97872 8.89398 5.83744C9.56885 5.2924 9.5197 4.20508 8.79785 3.72385L8.10315 3.26242L8.86835 1.98581C9.16221 1.49645 9.08323 0.89201 8.77734 0.50156C8.54811 0.208956 8.17143 0.0105376 7.76733 0.000399859ZM7.7417 1.31162L6.65607 3.124C6.56948 3.26856 6.54181 3.44088 6.5788 3.60528C6.61578 3.76968 6.71458 3.91356 6.85474 4.00711L8.06854 4.81589C7.88116 4.96729 7.72319 5.09489 7.58917 5.23117C6.08745 6.75709 5.58796 8.84767 5.86011 10.8785C6.13225 12.9094 7.15427 14.9112 8.73761 16.4066C8.82328 16.4877 8.9292 16.5441 9.04422 16.5701C9.15925 16.596 9.27914 16.5905 9.3913 16.554C9.3913 16.554 13.3565 15.2736 17.72 15.2736C21.9564 15.2736 26.0424 16.6156 26.0424 16.6156C26.1548 16.6527 26.2751 16.6586 26.3906 16.6329C26.5061 16.6072 26.6126 16.5507 26.6986 16.4695C28.2838 14.9726 29.3051 12.9574 29.5774 10.9131C29.8497 8.86886 29.3517 6.76339 27.8483 5.23246C27.8483 5.23203 27.8483 5.2316 27.8483 5.23117C27.7143 5.09489 27.5563 4.96857 27.369 4.81717L28.5828 4.00711C28.7229 3.91356 28.8217 3.76968 28.8587 3.60528C28.8957 3.44088 28.868 3.26856 28.7814 3.124L27.6958 1.31162L27.7804 1.33725H27.7817C31.5547 2.49861 34.125 5.98035 34.125 9.92874V10.3953C34.125 13.4971 31.814 17.6672 29.1839 19.3111C29.0895 19.37 29.0116 19.452 28.9575 19.5493C28.9035 19.6466 28.8751 19.756 28.875 19.8673V28.3986C28.875 32.7558 25.3572 36.2736 21 36.2736H14.4375C10.0803 36.2736 6.5625 32.7558 6.5625 28.3986V19.8673C6.56241 19.756 6.53401 19.6466 6.47997 19.5493C6.42593 19.452 6.34804 19.37 6.2536 19.3111C3.62349 17.6672 1.3125 13.4965 1.3125 10.394V9.92746C1.3125 5.97977 3.8828 2.49858 7.65582 1.33725L7.7417 1.31162ZM17.6841 9.36093C17.5103 9.36499 17.3452 9.43785 17.225 9.56354C17.1049 9.68922 17.0395 9.85745 17.0433 10.0313L17.0548 11.3438C17.0545 11.4306 17.0714 11.5167 17.1045 11.5969C17.1377 11.6772 17.1864 11.7501 17.2479 11.8114C17.3094 11.8727 17.3825 11.9211 17.4629 11.954C17.5433 11.9868 17.6294 12.0034 17.7162 12.0027C17.8031 12.002 17.8889 11.9841 17.9688 11.95C18.0487 11.9159 18.121 11.8663 18.1815 11.8041C18.2421 11.7418 18.2897 11.6682 18.3216 11.5874C18.3535 11.5066 18.369 11.4204 18.3673 11.3335L18.3558 10.021C18.3563 9.93322 18.3392 9.8462 18.3055 9.76511C18.2718 9.68403 18.2221 9.61054 18.1595 9.54898C18.0969 9.48743 18.0225 9.43907 17.9409 9.40677C17.8592 9.37447 17.7719 9.35888 17.6841 9.36093ZM21.0487 9.45706C20.8865 9.46509 20.7331 9.53296 20.618 9.64754C20.503 9.76212 20.4345 9.91528 20.4258 10.0774L20.3386 11.3874C20.3292 11.4753 20.3376 11.5642 20.3634 11.6488C20.3891 11.7334 20.4318 11.8119 20.4886 11.8796C20.5455 11.9473 20.6155 12.0028 20.6943 12.0428C20.7732 12.0828 20.8593 12.1065 20.9476 12.1123C21.0358 12.1182 21.1243 12.1062 21.2078 12.077C21.2913 12.0478 21.368 12.0021 21.4333 11.9425C21.4987 11.8829 21.5513 11.8108 21.5881 11.7304C21.6248 11.6499 21.645 11.5629 21.6473 11.4745L21.7344 10.1646C21.7418 10.0717 21.7293 9.97822 21.6978 9.8905C21.6662 9.80278 21.6163 9.72279 21.5515 9.65585C21.4866 9.58892 21.4082 9.53656 21.3215 9.50229C21.2348 9.46801 21.1418 9.45259 21.0487 9.45706V9.45706ZM14.3183 9.51731C14.2267 9.5174 14.1361 9.53668 14.0523 9.57391C13.9686 9.61114 13.8936 9.66549 13.8321 9.73347C13.7706 9.80145 13.7241 9.88155 13.6955 9.9686C13.6669 10.0557 13.6568 10.1477 13.6659 10.2389L13.7787 11.5463C13.7861 11.6322 13.8103 11.7159 13.85 11.7924C13.8898 11.869 13.9442 11.937 14.0102 11.9925C14.0762 12.0481 14.1525 12.0901 14.2347 12.1161C14.3169 12.1422 14.4035 12.1518 14.4894 12.1444C14.5754 12.1369 14.659 12.1127 14.7356 12.0729C14.8121 12.0332 14.8801 11.9788 14.9356 11.9128C14.9911 11.8468 15.0331 11.7705 15.0592 11.6882C15.0852 11.606 15.0948 11.5194 15.0873 11.4335L14.9733 10.1261C14.9613 9.96066 14.887 9.80587 14.7655 9.69291C14.644 9.57996 14.4842 9.51721 14.3183 9.51731ZM24.4133 9.82621C24.2621 9.83506 24.1186 9.89592 24.0072 9.99848C23.8958 10.101 23.8232 10.239 23.8019 10.3889L23.5994 11.686C23.5825 11.7726 23.5833 11.8617 23.6016 11.9479C23.6199 12.0342 23.6555 12.1159 23.7061 12.1881C23.7567 12.2603 23.8214 12.3216 23.8962 12.3683C23.971 12.415 24.0545 12.4461 24.1416 12.4598C24.2287 12.4735 24.3177 12.4695 24.4033 12.448C24.4888 12.4266 24.5692 12.3881 24.6395 12.3349C24.7098 12.2817 24.7687 12.2149 24.8127 12.1384C24.8566 12.0619 24.8847 11.9774 24.8952 11.8898L25.099 10.5927C25.1158 10.4952 25.1103 10.3952 25.083 10.3002C25.0557 10.2051 25.0073 10.1175 24.9413 10.0438C24.8754 9.97006 24.7936 9.91221 24.7022 9.87453C24.6108 9.83686 24.512 9.82034 24.4133 9.82621V9.82621ZM10.9563 9.96079C10.8592 9.96048 10.7632 9.98174 10.6753 10.023C10.5874 10.0643 10.5097 10.1246 10.448 10.1995C10.3862 10.2744 10.3418 10.3621 10.318 10.4562C10.2941 10.5504 10.2915 10.6486 10.3103 10.7439L10.5449 12.0359C10.5603 12.1208 10.5924 12.2017 10.6391 12.2742C10.6859 12.3467 10.7465 12.4092 10.8174 12.4583C10.8884 12.5074 10.9683 12.5419 11.0526 12.5601C11.1369 12.5783 11.224 12.5797 11.3088 12.5642C11.3937 12.5487 11.4746 12.5166 11.5471 12.4698C11.6195 12.4231 11.6821 12.3625 11.7311 12.2915C11.7801 12.2206 11.8147 12.1406 11.8329 12.0563C11.851 11.972 11.8524 11.8849 11.8369 11.8001L11.601 10.5081C11.5753 10.3555 11.4965 10.2169 11.3786 10.1168C11.2606 10.0166 11.111 9.96137 10.9563 9.96079V9.96079ZM11.8125 23.8048C10.9423 23.8048 10.1077 24.2197 9.49231 24.9581C8.87695 25.6965 8.53125 26.6981 8.53125 27.7423C8.53125 28.7866 8.87695 29.7882 9.49231 30.5266C10.1077 31.265 10.9423 31.6798 11.8125 31.6798C12.6827 31.6798 13.5173 31.265 14.1327 30.5266C14.748 29.7882 15.0938 28.7866 15.0938 27.7423C15.0938 26.6981 14.748 25.6965 14.1327 24.9581C13.5173 24.2197 12.6827 23.8048 11.8125 23.8048V23.8048ZM23.625 23.8048C22.7548 23.8048 21.9202 24.2197 21.3048 24.9581C20.6895 25.6965 20.3438 26.6981 20.3438 27.7423C20.3438 28.7866 20.6895 29.7882 21.3048 30.5266C21.9202 31.265 22.7548 31.6798 23.625 31.6798C24.4952 31.6798 25.3298 31.265 25.9452 30.5266C26.5605 29.7882 26.9062 28.7866 26.9062 27.7423C26.9062 26.6981 26.5605 25.6965 25.9452 24.9581C25.3298 24.2197 24.4952 23.8048 23.625 23.8048V23.8048Z" fill="#8257E5"/>
</svg>
